<svg 
 xmlns="http://www.w3.org/2000/svg"
 xmlns:xlink="http://www.w3.org/1999/xlink"
 width="2.639in" height="5.222in">
<path fill-rule="evenodd"  fill="rgb(255, 255, 255)"
 d="M118.356,292.205 C117.210,292.614 116.100,293.092 115.073,293.547 C113.503,294.248 111.938,294.963 110.379,295.690 L110.257,295.746 C96.381,302.173 82.646,308.903 69.062,315.931 L68.481,316.230 C67.086,316.951 65.643,317.697 64.227,318.461 C62.572,319.354 60.818,320.343 59.186,321.742 C55.669,324.757 53.732,328.918 53.732,333.464 C53.732,338.009 55.670,342.171 59.189,345.187 C60.822,346.585 62.573,347.573 64.228,348.467 C65.653,349.230 67.085,349.980 68.523,350.718 L69.062,350.996 C82.646,358.024 96.381,364.754 110.257,371.181 L110.456,371.272 C111.989,371.987 113.528,372.689 115.073,373.379 C116.100,373.834 117.208,374.312 118.357,374.722 C121.716,375.920 124.926,376.276 128.169,375.810 C134.956,374.834 140.773,370.268 143.349,363.892 C144.308,361.519 144.798,358.982 144.792,356.421 C144.792,355.625 144.745,354.815 144.652,354.014 C144.297,350.947 143.257,347.856 141.559,344.826 C139.481,341.121 136.437,337.461 132.085,333.464 C136.437,329.465 139.481,325.805 141.559,322.099 C143.257,319.071 144.297,315.980 144.652,312.913 C144.745,312.113 144.792,311.302 144.792,310.506 C144.797,307.945 144.308,305.408 143.349,303.035 C140.774,296.660 134.956,292.093 128.169,291.117 C124.927,290.651 121.718,291.007 118.356,292.205 L118.356,292.205 ZM123.420,333.463 C117.130,338.435 111.290,341.626 106.393,342.746 C104.338,343.216 102.449,343.323 100.780,343.065 C99.335,342.842 98.045,342.344 96.941,341.586 C94.448,339.869 92.960,336.833 92.960,333.462 C92.960,330.093 94.448,327.058 96.943,325.341 C98.046,324.581 99.337,324.084 100.782,323.861 C102.453,323.603 104.342,323.711 106.397,324.181 C111.293,325.303 117.132,328.493 123.420,333.464 L123.420,333.463 ZM127.686,296.729 C132.466,297.425 136.523,300.610 138.348,305.101 C139.237,307.298 139.549,309.699 139.268,312.141 C138.997,314.477 138.214,316.776 136.872,319.170 C135.014,322.484 132.162,325.838 127.977,329.613 C120.583,323.604 113.768,319.851 107.697,318.462 C104.922,317.826 102.296,317.692 99.894,318.062 C97.575,318.420 95.471,319.241 93.639,320.503 C89.554,323.313 87.116,328.158 87.116,333.464 C87.116,338.768 89.554,343.613 93.637,346.424 C95.469,347.685 97.574,348.506 99.891,348.863 C102.291,349.235 104.915,349.101 107.691,348.466 C113.764,347.078 120.581,343.325 127.978,337.314 C132.162,341.089 135.014,344.443 136.872,347.757 C138.214,350.150 138.997,352.450 139.268,354.786 C139.549,357.226 139.237,359.630 138.348,361.827 C136.523,366.318 132.466,369.503 127.685,370.198 C125.354,370.533 123.107,370.274 120.612,369.384 C119.692,369.055 118.789,368.672 117.716,368.197 C116.199,367.524 114.657,366.810 113.165,366.120 L112.965,366.027 C99.102,359.606 85.379,352.882 71.808,345.861 L71.264,345.581 C69.851,344.856 68.444,344.118 67.043,343.368 C65.602,342.590 64.209,341.807 63.007,340.778 C60.763,338.855 59.576,336.326 59.576,333.463 C59.576,330.602 60.762,328.073 63.006,326.150 C64.208,325.120 65.601,324.337 67.041,323.560 C68.429,322.817 69.823,322.086 71.224,321.367 L71.809,321.065 C85.380,314.044 99.102,307.320 112.966,300.900 L113.089,300.843 C114.626,300.126 116.169,299.421 117.717,298.730 C118.791,298.254 119.694,297.869 120.611,297.542 C123.108,296.653 125.355,296.394 127.685,296.729 L127.686,296.729 ZM92.909,141.366 C66.546,141.366 42.434,137.978 26.038,132.006 C14.625,127.973 6.106,122.809 6.106,116.030 C6.106,110.060 13.018,106.671 24.110,106.671 C38.255,106.671 54.972,111.512 71.530,119.419 C83.746,125.230 95.641,132.814 106.412,141.045 C102.233,141.205 97.731,141.366 92.909,141.366 ZM145.312,176.063 C139.686,165.896 131.005,155.568 120.397,146.047 C138.722,143.142 144.670,137.009 144.670,129.748 C144.670,121.679 137.275,113.933 123.934,107.154 L126.505,107.154 C140.329,107.154 144.670,100.861 144.670,95.213 C144.670,86.822 135.346,78.591 120.075,71.974 C122.808,72.136 124.093,72.136 125.862,72.136 C139.847,72.136 144.026,66.972 144.026,61.001 C144.026,55.514 140.168,50.995 132.131,46.155 C130.202,45.025 127.630,46.476 127.630,48.736 C127.630,49.866 128.273,50.995 129.238,51.479 C134.381,54.385 137.918,57.128 137.918,60.516 C137.918,65.197 131.165,65.680 125.862,65.680 C118.146,65.680 105.555,64.700 98.053,63.260 C96.048,62.876 94.356,64.390 94.356,66.326 C94.356,67.940 95.480,69.231 96.767,69.554 C118.950,75.686 138.561,85.207 138.561,94.245 C138.561,98.763 133.257,100.700 126.345,100.700 C118.468,100.700 108.983,99.085 98.374,96.182 C96.445,95.697 94.516,97.149 94.516,99.247 C94.516,100.538 95.321,101.991 96.606,102.314 C120.718,109.575 138.561,119.743 138.561,128.941 C138.561,135.557 129.559,138.945 115.253,140.398 C102.875,129.909 88.569,120.549 74.101,113.610 C56.580,105.379 38.898,100.216 24.110,100.216 C5.302,100.216 -0.003,108.285 -0.003,115.708 C-0.003,124.422 8.195,132.491 23.788,138.139 C40.827,144.110 65.582,147.822 92.909,147.822 C100.303,147.822 106.733,147.499 112.359,147.015 C123.772,157.020 133.578,167.994 139.847,178.968 C140.651,180.420 142.580,181.065 144.026,180.259 C145.473,179.452 146.116,177.516 145.312,176.063 L145.312,176.063 ZM190.000,230.770 C190.000,228.995 188.553,227.381 186.784,227.381 C172.639,227.381 158.493,226.736 144.670,225.284 C142.098,195.912 114.128,162.185 85.032,162.185 C64.939,162.185 53.526,176.709 53.526,195.912 C53.526,214.633 65.261,238.355 84.711,258.044 C85.835,259.334 87.926,259.334 89.212,258.044 C90.497,256.913 90.497,254.815 89.212,253.524 C71.370,235.127 59.956,213.341 59.956,196.074 C59.956,180.581 69.118,168.963 85.032,168.963 C110.751,168.963 135.345,198.495 138.079,224.638 C117.664,222.217 97.892,218.344 80.531,213.018 C78.924,212.535 76.995,213.664 76.512,215.278 C76.031,217.053 76.995,218.989 78.602,219.474 C96.606,224.799 117.020,228.833 138.400,231.416 C138.079,237.709 136.471,243.196 132.935,249.328 C132.131,250.942 132.774,252.878 134.221,253.847 C135.828,254.654 137.758,254.008 138.722,252.556 C142.418,245.294 144.347,239.000 144.830,232.061 C158.654,233.352 172.800,234.160 186.784,234.160 C188.553,234.160 190.000,232.545 190.000,230.770 L190.000,230.770 ZM101.749,11.297 C102.714,10.005 102.553,7.907 101.268,6.940 C95.803,2.582 90.015,-0.000 85.032,-0.000 C77.638,-0.000 72.977,5.003 72.977,14.200 C72.977,31.952 90.980,49.059 104.804,49.059 C113.646,49.059 119.593,42.927 121.843,30.661 L123.129,23.077 C124.415,15.170 127.147,9.844 132.613,9.844 C138.561,9.844 141.776,16.461 141.776,23.400 C141.776,28.564 140.007,33.083 137.597,36.633 C136.632,37.924 136.953,39.860 138.239,40.828 C139.525,41.797 141.454,41.474 142.418,40.183 C145.794,35.664 147.884,29.855 147.884,23.400 C147.884,11.943 141.454,3.389 132.292,3.389 C124.898,3.389 119.271,9.037 117.021,22.109 L115.734,29.694 C114.448,37.440 111.074,42.603 104.643,42.603 C93.552,42.603 79.084,28.402 79.084,14.363 C79.084,9.521 81.175,6.455 85.515,6.455 C88.890,6.455 93.231,8.392 97.409,11.780 C98.696,12.749 100.625,12.588 101.749,11.297 L101.749,11.297 Z"/>
</svg>