<svg viewBox="0 0 32 32" fill="none" xmlns="http://www.w3.org/2000/svg" focusable="false" style="display: block; height: 32px; width: 32px; fill: currentcolor;"><path d="M24.6666 11.1332V11.5332C24.5999 14.3332 22.9333 17.0665 19.5333 19.7998L19.3333 19.9998H12.6666L12.3999 19.7998C8.99994 17.0665 7.33327 14.3332 7.2666 11.5332V11.1332C7.4666 6.4665 11.2666 2.6665 15.9999 2.6665C20.7333 2.6665 24.5999 6.4665 24.6666 11.1332Z" fill="#64DEE2"></path><path d="M27.3334 11.3333C27.3334 5.06667 22.2667 0 16.0001 0C9.73342 0 4.66675 5.06667 4.66675 11.3333C4.66675 15.2667 6.93341 18.9333 11.3334 22.3333V29.3333C11.3334 30.0667 11.9334 30.6667 12.6667 30.6667H15.3334V32H16.6667V30.6667H19.3334C20.0667 30.6667 20.6667 30.0667 20.6667 29.3333V22.3333C25.0667 18.9333 27.3334 15.2667 27.3334 11.3333ZM19.3334 29.3333H12.6667V26.6667H19.3334V29.3333ZM19.3334 25.3333H12.6667V22.6667H19.3334V25.3333ZM17.3334 21.3333H14.6667V11.3333C14.6667 10.6 15.2667 10 16.0001 10C16.7334 10 17.3334 10.6 17.3334 11.3333V21.3333ZM19.8001 21.3333H18.6667V11.3333C18.6667 9.86667 17.4667 8.66667 16.0001 8.66667C14.5334 8.66667 13.3334 9.86667 13.3334 11.3333V21.3333H12.2001C8.06675 18.2 6.00008 14.8 6.00008 11.3333C6.00008 5.8 10.4667 1.33333 16.0001 1.33333C21.5334 1.33333 26.0001 5.8 26.0001 11.3333C26.0001 14.8 23.9334 18.2 19.8001 21.3333Z" fill="#222222"></path></svg>
