<svg xmlns="http://www.w3.org/2000/svg" viewBox="0 0 405 100"><g fill="#fff"><path d="M239 43.5a3 3 0 012.8 2v.2l6.3 21L263 44.9c.6-.8 1.4-1.3 2.4-1.4H276.2c1.4 0 2.3 1.6 1.6 2.8l-.1.1-35.6 51.4a3 3 0 01-2.3 1.4h-10.9a1.9 1.9 0 01-1.6-2.8v-.1l11.1-15.7L226.6 46a1.9 1.9 0 011.6-2.5h.2zm-46.9-1c5 0 10 1.1 12.5 4.3l.1.2.8 1 .4-2.9c.2-.8.9-1.5 1.7-1.6H218.4a1.9 1.9 0 011.9 2v.2l-5.8 36.5a3 3 0 01-2.9 2.6H202a1.9 1.9 0 01-1.9-2v-.2l.5-3-.2.3-.3.2a20.7 20.7 0 01-14.2 5.7c-5.6 0-10.2-1.6-13.5-5.5-3.5-4.1-5-10-4-16.3 2-12.5 12-21.5 23.8-21.5zm158.7 0c5 0 10 1.1 12.5 4.3l.1.2.8 1 .4-2.9c.2-.8.9-1.5 1.7-1.6H377.1a1.9 1.9 0 011.9 2v.2l-5.8 36.5a3 3 0 01-2.9 2.6h-9.7a1.9 1.9 0 01-1.9-2v-.2l.5-3-.2.3-.3.2a20.7 20.7 0 01-14.2 5.7c-5.6 0-10.2-1.6-13.5-5.5a20 20 0 01-4-15.9V64c2-12.5 12-21.5 23.8-21.5zM288.4 23h22.2c7.5 0 13 2 16.2 5.6 2.8 3.3 3.8 8 3 14l-.1.4c-2.2 14-10.5 21-24.9 21.1h-7.4a3 3 0 00-3.1 2.5v.2l-2.6 16.1c-.1 1-1 1.8-2 1.9h-11.5a1.9 1.9 0 01-1.9-2v-.2l9-57a3 3 0 012.9-2.6zm-136.5 0c7.5 0 13 2 16.2 5.6 3 3.4 3.9 8.3 2.9 14.4-2.2 14-10.5 21-24.9 21.1h-7.4a3 3 0 00-3.1 2.5v.2L133 82.2a3 3 0 01-2.8 2.6H119.5a1.9 1.9 0 01-1.9-2v-.2l9-57a3 3 0 012.9-2.6h.2zm249.9 0a1.9 1.9 0 011.9 2v.1l-9 57a3 3 0 01-3 2.7H382.5a1.9 1.9 0 01-1.9-2v-.2l9.2-58c.1-1 .8-1.6 1.7-1.6h.1zM194.7 53.8c-6 0-11 4.3-12 10.3a9 9 0 001.7 7.5c1.6 1.9 4 2.8 7.2 2.8 6.1 0 11-4 12-10.1.5-3-.2-5.6-1.8-7.6a9 9 0 00-7.1-2.9zm158.7 0c-6.1 0-11 4.3-12 10.3a9 9 0 001.7 7.5c1.6 1.9 4 2.8 7.2 2.8 6.1 0 11-4 12-10.1.4-3-.2-5.6-1.8-7.6a9 9 0 00-7.1-2.9zM303 35.3h-2.3c-.8 0-1.6.6-1.8 1.4v.2l-2.4 14.9H302c5.2-.1 10.1-1 11.2-8 .4-2.8 0-4.8-1-6.2-2-2.2-5.4-2.3-9.1-2.3zm-158.7 0H142c-.8 0-1.6.6-1.8 1.4v.2l-2.4 14.9H143.3c5.1-.1 10-1 11.1-7.7l.1-.3c.4-2.8 0-4.8-1-6.2-2-2.2-5.4-2.3-9.1-2.3z"/><path d="M75 26c1.2-7.7 0-12.9-4.2-17.6C66.3 3.2 58.1 1 47.6 1H17c-2.2 0-4 1.6-4.4 3.7L0 85.3a2.6 2.6 0 002.6 3h18.9l-1.3 8.2a2.3 2.3 0 002.2 2.7h15.9c1.9 0 3.5-1.4 3.8-3.2l.1-.9 3-19 .2-1a3.8 3.8 0 013.8-3.2h2.4c15.3 0 27.4-6.2 31-24.3 1.4-7.6.6-13.9-3.3-18.3a15.1 15.1 0 00-4.3-3.4" opacity=".68"/><path d="M75 26c1.2-7.7 0-12.9-4.2-17.6C66.3 3.2 58.1 1 47.6 1H17c-2.2 0-4 1.6-4.4 3.7L0 85.3a2.6 2.6 0 002.6 3h18.9l4.7-30-.2 1a4.4 4.4 0 014.3-3.8h9c17.6 0 31.3-7.1 35.4-27.8L75 26" opacity=".68"/><path d="M31.3 26a3.8 3.8 0 013.7-3.2h24a49.8 49.8 0 0112.7 1.7L75 26c1.2-7.6 0-12.8-4.2-17.5C66.3 3.2 58.1 1 47.6 1H17c-2.2 0-4 1.6-4.4 3.7L0 85.3a2.6 2.6 0 002.6 3h18.9l4.7-30 5-32.3z"/></g></svg>
